<?xml version="1.0" encoding="UTF-8" standalone="no"?>
<svg
   xmlns:dc="http://purl.org/dc/elements/1.1/"
   xmlns:cc="http://creativecommons.org/ns#"
   xmlns:rdf="http://www.w3.org/1999/02/22-rdf-syntax-ns#"
   xmlns:svg="http://www.w3.org/2000/svg"
   xmlns="http://www.w3.org/2000/svg"
   xmlns:sodipodi="http://sodipodi.sourceforge.net/DTD/sodipodi-0.dtd"
   xmlns:inkscape="http://www.inkscape.org/namespaces/inkscape"
   class="icon"
   style="width: 1em; height: 1em;vertical-align: middle;fill: currentColor;overflow: hidden;"
   viewBox="0 0 1024 1024"
   version="1.1"
   id="svg4"
   sodipodi:docname="microphone-mute.svg"
   inkscape:version="0.92.2 5c3e80d, 2017-08-06">
  <metadata
     id="metadata10">
    <rdf:RDF>
      <cc:Work
         rdf:about="">
        <dc:format>image/svg+xml</dc:format>
        <dc:type
           rdf:resource="http://purl.org/dc/dcmitype/StillImage" />
      </cc:Work>
    </rdf:RDF>
  </metadata>
  <defs
     id="defs8" />
  <sodipodi:namedview
     pagecolor="#ffffff"
     bordercolor="#666666"
     borderopacity="1"
     objecttolerance="10"
     gridtolerance="10"
     guidetolerance="10"
     inkscape:pageopacity="0"
     inkscape:pageshadow="2"
     inkscape:window-width="1062"
     inkscape:window-height="831"
     id="namedview6"
     showgrid="false"
     inkscape:zoom="0.23046875"
     inkscape:cx="512"
     inkscape:cy="512"
     inkscape:window-x="0"
     inkscape:window-y="0"
     inkscape:window-maximized="0"
     inkscape:current-layer="svg4" />
  <path
     d="M786.812463 356.985303l0 187.823633c0 54.781893-5.417989 104.145797-34.313933 153.5097-47.557907 83.677837-145.081717 128.22575-237.187537 129.429747-1.805996 0-5.417989 0-6.621987 0-52.373898 0-104.145797-15.651969-148.69371-43.343915l-31.303939 31.303939c46.955908 31.303939 103.543798 50.567901 162.539683 54.781893 0 36.119929 0 71.63786 0 108.961787-57.791887 0-117.99177 0-175.783657 0-28.895944 0-28.895944 44.547913 0 44.547913 133.04174 0 264.277484 0 397.319224 0 28.895944 0 28.895944-44.547913 0-44.547913-57.791887 0-117.99177 0-175.783657 0 0-36.119929 0-71.63786 0-107.75779 160.131687-8.427984 296.78542-138.45973 296.78542-302.20341L833.768372 310.029394 786.812463 356.985303 786.812463 356.985303zM252.839506 655.57672c-11.437978-35.517931-13.845973-74.045855-13.845973-112.57378 0-93.911817 0-187.823633 0-279.929453 0-28.895944-44.547913-28.895944-44.547913 0 0 102.3398 0 204.6796 0 307.0194 0 43.343915 9.029982 83.075838 24.681952 119.195767L252.839506 655.57672zM511.699001 721.79659c97.52381 0 175.783657-78.259847 175.783657-175.783657L687.482657 456.315109l-44.547913 44.547913 0 45.149912c0 73.443857-59.597884 131.235744-131.235744 131.235744-13.845973 0-26.487948-1.805996-39.129924-6.019988l-34.915932 34.915932C460.529101 716.378601 485.813051 722.398589 511.699001 721.79659L511.699001 721.79659zM687.482657 220.33157l0-44.547913C687.482657 78.259847 609.22281 0 511.699001 0S335.915344 78.259847 335.915344 175.783657l0 370.229277c0 8.427984 0.601999 16.855967 1.805996 24.681952l42.741917-42.741917L380.463257 175.783657C380.463257 102.3398 440.061141 44.547913 511.699001 44.547913c73.443857 0 131.235744 57.791887 131.235744 131.235744L642.934744 264.879483 687.482657 220.33157 687.482657 220.33157zM181.803645 873.500294 875.908289 178.793651c8.427984-8.427984 8.427984-20.46796 0-28.895944l0 0c-8.427984-8.427984-20.46796-8.427984-28.895944 0L152.907701 844.60435c-8.427984 8.427984-8.427984 20.46796 0 28.895944l0 0C161.335685 881.928277 173.375661 881.928277 181.803645 873.500294L181.803645 873.500294z"
     id="path2" />
  <path
     style="fill:#ff0000;stroke-width:4.33898306"
     d="m 154.4678,870.4 c -2.86373,-2.86373 -5.20678,-8.23773 -5.20678,-11.94218 0,-8.79182 703.02802,-711.80019 711.8201,-711.80019 9.36526,0 17.12905,8.75617 17.12905,19.31852 0,12.39282 -697.25749,709.63063 -709.65066,709.63063 -4.88671,0 -11.22798,-2.34305 -14.09171,-5.20678 z"
     id="path3701"
     inkscape:connector-curvature="0" />
</svg>
